<svg width="19" height="19" viewBox="0 0 19 19" fill="none" xmlns="http://www.w3.org/2000/svg">
<g clip-path="url(#clip0_258_1135)">
<path d="M12.8833 1.51611H5.38331C3.31224 1.51611 1.63331 3.19505 1.63331 5.26611V12.7661C1.63331 14.8372 3.31224 16.5161 5.38331 16.5161H12.8833C14.9544 16.5161 16.6333 14.8372 16.6333 12.7661V5.26611C16.6333 3.19505 14.9544 1.51611 12.8833 1.51611Z" stroke="#EFD9C1" stroke-width="1.5" stroke-linecap="round" stroke-linejoin="round"/>
<path d="M12.1333 8.54384C12.2259 9.16802 12.1193 9.8055 11.8286 10.3656C11.538 10.9257 11.0782 11.3799 10.5145 11.6636C9.95089 11.9473 9.31215 12.046 8.68915 11.9458C8.06615 11.8455 7.49063 11.5514 7.04444 11.1052C6.59825 10.659 6.30411 10.0835 6.20386 9.4605C6.10361 8.8375 6.20236 8.19876 6.48605 7.63512C6.76975 7.07148 7.22395 6.61164 7.78405 6.32102C8.34415 6.0304 8.98163 5.92378 9.60581 6.01634C10.2425 6.11075 10.8319 6.40744 11.2871 6.86257C11.7422 7.3177 12.0389 7.90715 12.1333 8.54384Z" stroke="#EFD9C1" stroke-width="1.5" stroke-linecap="round" stroke-linejoin="round"/>
<path d="M13.2583 4.89111H13.265" stroke="#EFD9C1" stroke-width="1.5" stroke-linecap="round" stroke-linejoin="round"/>
</g>
<defs>
<clipPath id="clip0_258_1135">
<rect width="18" height="18" fill="white" transform="translate(0.133308 0.0161133)"/>
</clipPath>
</defs>
</svg>
