<svg width="17" height="17" viewBox="0 0 17 17" fill="none" xmlns="http://www.w3.org/2000/svg">
<path d="M13.8145 2.34596C12.7029 1.23104 11.2857 0.470598 9.74206 0.1607C8.19843 -0.149199 6.59757 0.00534633 5.14172 0.604813C3.68588 1.20428 2.44035 2.22177 1.56249 3.52876C0.684631 4.83574 0.213817 6.37359 0.209527 7.94802C0.192162 9.34236 0.561514 10.7142 1.27659 11.9114L0.133308 16.0272L4.36344 14.922C5.53062 15.5622 6.84324 15.8903 8.17436 15.8747C9.7445 15.8811 11.2812 15.4211 12.5895 14.5529C13.8978 13.6847 14.9188 12.4475 15.5229 10.9983C16.1271 9.54904 16.2873 7.953 15.9832 6.41259C15.679 4.87218 14.9242 3.4568 13.8145 2.34596ZM8.17436 14.5409C6.88873 14.5501 5.6291 14.1789 4.55398 13.4739L2.03877 14.1598L2.72474 11.7208C1.96716 10.6074 1.5561 9.29467 1.54335 7.94802C1.5358 6.63493 1.91828 5.34917 2.6423 4.2537C3.36633 3.15823 4.39929 2.30239 5.61027 1.79466C6.82124 1.28692 8.1557 1.15016 9.44449 1.4017C10.7333 1.65324 11.9184 2.28175 12.8496 3.20758C13.7807 4.13341 14.4161 5.31486 14.675 6.60218C14.934 7.8895 14.8049 9.22472 14.3042 10.4386C13.8034 11.6525 12.9536 12.6904 11.8623 13.4207C10.771 14.151 9.48747 14.5409 8.17436 14.5409Z" fill="#EFD9C1"/>
<path d="M11.7947 9.6249C11.3527 9.37798 10.8943 9.16153 10.4228 8.97704C10.2704 8.90082 10.1179 8.86271 10.0036 9.05326C9.88928 9.2438 9.47008 9.70111 9.35575 9.85355C9.30417 9.91257 9.23184 9.94946 9.15378 9.95656C9.07572 9.96366 8.99792 9.94042 8.93655 9.89166C8.35256 9.65086 7.81189 9.31616 7.33596 8.90082C6.89889 8.50336 6.52607 8.04056 6.23079 7.52889C6.20968 7.49923 6.19486 7.46556 6.18724 7.42996C6.17963 7.39435 6.17939 7.35757 6.18653 7.32187C6.19367 7.28617 6.20804 7.25231 6.22876 7.22237C6.24948 7.19243 6.27611 7.16705 6.30701 7.14779L6.61188 6.7667C6.68886 6.67414 6.75296 6.57159 6.80243 6.46183C6.83253 6.40969 6.84838 6.35054 6.84838 6.29034C6.84838 6.23013 6.83253 6.17098 6.80243 6.11884C6.72621 6.00452 6.34512 5.05179 6.19268 4.63258C6.04024 4.21338 5.8497 4.2896 5.73537 4.2896H5.35428C5.25048 4.28807 5.14783 4.3115 5.05498 4.35793C4.96213 4.40435 4.8818 4.47241 4.82075 4.55636C4.59338 4.76261 4.4141 5.01628 4.29557 5.29945C4.17703 5.58261 4.12215 5.88835 4.13478 6.19506C4.20122 6.94299 4.47876 7.65666 4.93507 8.25296C5.0494 8.36729 6.34512 10.3871 8.3268 11.2255C8.69334 11.4021 9.07625 11.5425 9.47008 11.6447C9.87537 11.7798 10.309 11.8061 10.7277 11.7209C11.1088 11.6828 11.9091 11.2636 12.0615 10.8063C12.2139 10.349 12.2521 9.92977 12.1758 9.85355C12.0729 9.74288 11.9408 9.66361 11.7947 9.6249Z" fill="#EFD9C1"/>
</svg>
