<svg width="224" height="51" viewBox="0 0 224 51" fill="none" xmlns="http://www.w3.org/2000/svg">
<path id="path248" d="M3.18646 49.7597C2.05379 49.323 0.807697 48.2282 0.443565 47.3498C0.00651141 46.2955 0.0353558 44.2158 0.503881 42.9989C1.39404 40.6872 4.33484 37.3819 7.21714 35.4536C10.0883 33.5328 14.9997 31.4953 18.1442 30.9206C21.9159 30.2312 25.018 30.204 30.5783 30.8116L31.968 30.9634L33.9801 28.662C38.8576 23.083 43.439 16.0146 45.4326 10.9922C46.1068 9.29378 46.2972 8.46489 46.3784 6.87415C46.4678 5.12359 46.4149 4.75702 45.9411 3.84551C45.102 2.23117 44.1426 1.84761 40.9436 1.84761C39.3103 1.84761 38.3665 1.76049 38.4142 1.61415C38.456 1.48575 39.0984 1.06633 39.8417 0.682114C41.0079 0.0793161 41.4341 -0.0139989 42.9502 0.00154105C45.2432 0.0250469 46.4019 0.594025 47.303 2.13903C47.8871 3.14064 47.9482 3.45234 47.932 5.34945C47.9169 7.11529 47.7925 7.78581 47.1525 9.55165C45.2348 14.8419 40.9529 21.6396 35.1145 28.6626C34.0619 29.9287 33.2881 31.0476 33.395 31.149C33.5019 31.2505 34.8371 31.8222 36.3621 32.4196C40.7125 34.1237 42.5741 35.3938 42.1921 36.3973C41.9671 36.9883 41.2878 36.8059 38.3069 35.354C35.8315 34.1484 32.3857 32.7805 31.8239 32.7805C31.7256 32.7805 30.1022 34.2689 28.2164 36.0881C19.6195 44.3815 15.5047 47.375 10.2471 49.1608C7.80153 49.9915 4.51142 50.2705 3.18646 49.7597ZM9.51502 47.9368C14.747 46.5561 21.6671 41.7896 27.63 35.4593C29.4042 33.5759 30.1463 32.6352 29.9462 32.5236C29.2254 32.1213 24.9019 31.7872 22.1446 31.9207C16.8765 32.1756 12.9697 33.146 9.14455 35.1498C5.01931 37.3108 2.88147 39.2672 1.83012 41.8436C0.984068 43.9169 1.14739 45.3066 2.3931 46.6336C4.05053 48.3992 6.24268 48.8004 9.51502 47.9368ZM106.465 46.9103C101.81 45.8442 99.3927 43.2491 99.3812 39.3061C99.3768 37.7816 99.4782 37.3349 100.134 35.9926C101.545 33.1038 105.425 30.2865 109.561 29.1474C114.843 27.6928 123.851 29.064 135.552 33.1036L137.222 33.6802L138.506 32.2821C139.212 31.5131 141.472 28.6055 143.528 25.8208C148.907 18.5355 153.296 13.3572 156.046 11.0503C158.076 9.34788 158.381 9.51096 157.813 11.9931L157.54 13.1862L156.526 13.033L155.512 12.8798L153.144 15.3012C150.465 18.0409 148.368 20.7284 144.08 26.9165C142.445 29.2768 140.592 31.8318 139.962 32.5944C139.332 33.357 138.853 34.0104 138.897 34.0463C139.116 34.2247 152.427 38.4298 154.033 38.8279C159.243 40.1193 162.539 40.3546 164.277 39.5594C165.586 38.9606 165.767 39.3722 164.519 40.109C162.309 41.4142 161.962 41.4809 158.089 41.3488C153.858 41.2047 153.079 41.0233 143.841 38.0349C140.402 36.9222 137.485 35.9855 137.359 35.9535C137.233 35.9215 136.118 36.7537 134.881 37.8027C129.362 42.481 124.531 45.0359 118.479 46.478C115.37 47.2188 108.838 47.4538 106.465 46.9103ZM117.781 45.4835C122.996 44.4953 128.298 41.6912 133.697 37.0666C134.637 36.2619 135.407 35.5265 135.409 35.4324C135.414 35.2045 127.299 32.7397 123.227 31.7324C116.934 30.1758 113.046 29.8793 109.258 30.6672C105.363 31.4772 102.656 33.2059 101.394 35.6893C100.941 36.5817 100.774 37.3172 100.702 38.7336C100.613 40.4848 100.65 40.668 101.29 41.6707C102.615 43.7431 105.887 45.3897 109.603 45.8529C111.561 46.0971 115.478 45.9202 117.781 45.4835ZM201.722 36.1465C201.799 35.9434 201.863 35.7408 201.863 35.6962C201.863 35.6517 203.139 34.5964 204.7 33.3512C206.261 32.106 207.571 30.999 207.612 30.8912C207.738 30.5595 206.876 29.549 206.232 29.2724C205.669 29.0312 205.466 29.1296 203.684 30.5067C199.42 33.8003 196.724 35.3145 194.757 35.519C193.676 35.6315 193.434 35.5778 192.95 35.1192C192.642 34.8279 192.32 34.2613 192.235 33.8601C191.998 32.7432 191.963 32.7379 190.734 33.6277C189.413 34.5843 187.573 35.3485 186.59 35.3485C185.847 35.3485 184.954 34.4395 184.954 33.6828C184.954 33.1393 185.012 33.1334 183.53 33.8288C182.154 34.4744 181.192 34.5582 180.322 34.1082C179.806 33.8414 179.628 33.8812 178.7 34.47C175.412 36.557 172.156 36.0777 172.773 33.5976C172.853 33.2766 172.873 33.014 172.816 33.014C172.76 33.014 171.941 33.434 170.997 33.9475C167.177 36.024 164.416 36.149 163.539 34.2852C163.059 33.2671 163.295 32.6928 164.93 30.9008C165.646 30.1158 166.192 29.4333 166.143 29.3842C166.094 29.3351 165.353 29.4051 164.495 29.5397C163.108 29.7574 162.721 29.9475 160.998 31.2571C157.292 34.0744 154.056 35.5868 151.673 35.6155C149.692 35.6393 148.783 34.7864 148.783 32.9051C148.783 30.4457 152.123 26.4772 154.194 26.4772C155.055 26.4772 155.84 27.2695 155.651 27.9482C155.468 28.6055 153.744 30.1954 151.89 31.4156C151.094 31.9397 150.443 32.4903 150.443 32.6393C150.443 33.7485 152.108 34.5117 153.731 34.1459C155.085 33.8407 158.053 32.2203 160.229 30.5984C161.774 29.4461 162.024 29.163 162.024 28.5591C162.024 28.0453 162.316 27.5432 163.117 26.6803C164.432 25.2628 165.234 24.7922 165.795 25.1085C166.365 25.43 166.287 26.0955 165.58 26.9416L164.968 27.6753L166.342 27.5185C167.44 27.3934 167.777 27.4351 168.016 27.7254C168.479 28.2869 168.133 28.9704 166.498 30.7247C165.218 32.0986 165.017 32.4314 165.078 33.0711C165.129 33.5965 165.337 33.9213 165.781 34.1715C167.184 34.9617 171.321 33.1183 175.3 29.93C177.57 28.1105 178.806 27.4149 180.073 27.2437C181.476 27.054 182.16 27.3191 182.523 28.1933C183.046 29.4564 182.47 31.1608 181.079 32.4594C180.364 33.1274 180.569 33.4815 181.667 33.4786C182.895 33.4751 184.659 32.5639 185.997 31.241C187.073 30.1774 189.991 27.9756 190.677 27.7105C190.841 27.6467 190.976 27.7489 190.976 27.9377C190.976 28.2451 190.508 28.7245 187.779 31.2108C187.147 31.7874 187.027 32.0496 187.085 32.729C187.2 34.0824 187.677 34.1625 189.679 33.1652C191.018 32.498 191.718 31.9561 192.651 30.8636C195.143 27.9467 195.678 27.411 196.102 27.411C196.85 27.411 196.588 28.196 195.474 29.2884C194.269 30.4709 193.756 31.3308 193.756 32.1674C193.756 32.8861 194.806 34.1812 195.389 34.1812C196.806 34.1812 200.315 32.168 204.284 29.0785C206.56 27.3067 207.3 27.2013 208.494 28.4782C208.923 28.9367 209.275 29.4119 209.275 29.5342C209.275 29.6564 210.03 29.2397 210.954 28.6081C213.451 26.9005 215.354 25.9604 216.133 26.05C216.709 26.1163 216.463 26.2973 214.37 27.3472C212.261 28.4052 209.783 30.071 209.749 30.4535C209.716 30.8258 211.799 33.6424 212.324 33.9347C212.874 34.2409 213.078 34.2355 214.181 33.8849C215.611 33.4306 218.53 31.6364 221.446 29.4197C223.432 27.9095 223.867 27.6698 223.867 28.0831C223.867 28.4324 220.728 31.2931 218.953 32.5622C216.24 34.5015 213.84 35.5819 212.248 35.5819C211.018 35.5819 210.844 35.5136 210.063 34.7274C209.597 34.2573 209.015 33.4169 208.771 32.8597C208.526 32.3025 208.232 31.8467 208.117 31.8467C208.003 31.8467 206.838 32.7134 205.53 33.7727C202.075 36.5705 201.401 36.9907 201.722 36.1465ZM177.609 33.9195C179.115 33.155 179.171 33.0814 178.798 32.36C178.419 31.629 178.368 30.042 178.696 29.1749L178.922 28.5738L178.036 29.0298C177.548 29.2805 176.56 30.0471 175.84 30.7332C174.672 31.8461 174.531 32.0818 174.531 32.9176C174.531 33.4328 174.656 33.9805 174.809 34.1346C175.238 34.5665 176.531 34.4673 177.609 33.9195ZM180.757 31.4933C182.357 29.6563 182.596 28.2808 181.337 28.1573C180.223 28.048 179.395 29.1638 179.395 30.7751C179.395 32.5911 179.673 32.7375 180.757 31.4933ZM152.083 30.2002C153.669 29.1742 154.439 27.8779 153.462 27.8779C152.898 27.8779 151.461 29.123 151.01 30.0021C150.418 31.1551 150.565 31.1822 152.083 30.2002ZM45.1669 35.2495C44.6353 34.7136 44.5677 34.4988 44.7025 33.7746C45.1907 31.1513 49.9441 27.1776 52.5937 27.1776C54.0304 27.1776 54.6729 27.7848 54.6453 29.1169C54.6227 30.2154 53.8534 31.8214 52.9593 32.6369C52.6943 32.8786 52.5333 33.1674 52.6015 33.2786C53.0815 34.0613 56.0969 32.5216 60.2802 29.3578C62.5948 27.6072 63.4703 27.2461 64.7263 27.5242C66.5902 27.9368 66.2567 30.1831 63.9547 32.7218L62.7766 34.0211L63.7016 33.8565C65.6587 33.5084 69.2544 31.4986 72.8052 28.7683C73.609 28.1502 74.4168 27.6445 74.6003 27.6445C75.1683 27.6445 74.9705 28.3684 74.1152 29.4205C73.0193 30.7685 72.5446 31.9646 72.7237 32.9268C72.8027 33.3509 72.9743 33.7647 73.1052 33.8462C73.6755 34.2015 74.9885 33.9505 76.1926 33.2562C77.2144 32.6669 77.5689 32.2991 77.9485 31.4342C79.0405 28.9459 81.5963 26.4772 83.0804 26.4772C83.7748 26.4772 84.662 27.1874 84.662 27.7433C84.662 28.3119 83.5807 29.4076 81.4166 31.0316C80.2716 31.8909 79.3347 32.6651 79.3347 32.752C79.3347 33.2122 80.1432 33.9575 80.8582 34.1565C82.6733 34.6616 85.2271 33.4972 89.9744 29.9999C92.6906 27.9989 93.6103 27.4966 93.3257 28.1698C93.171 28.5358 89.6684 31.4312 87.9329 32.6276C83.2927 35.8267 78.9276 36.5649 77.9138 34.3221L77.672 33.7874L76.245 34.5626C73.9318 35.8194 71.6316 35.5172 70.8442 33.853C70.4869 33.0977 70.4851 32.9567 70.8223 32.0914L71.1889 31.1508L69.7252 32.2035C66.9196 34.2215 63.64 35.3485 60.574 35.3485C58.6969 35.3485 58.1264 35.1616 57.0228 34.185L56.2003 33.4571L55.2691 33.9359C54.1843 34.4937 53.0709 34.5469 52.1889 34.0831C51.6817 33.8164 51.5172 33.811 51.3169 34.0542C50.8678 34.5996 48.2962 35.6158 47.0324 35.7473C45.9055 35.8645 45.731 35.818 45.1669 35.2495ZM49.1551 34.1343C49.5114 33.98 50.0888 33.6582 50.4383 33.4192C51.0606 32.9934 51.066 32.9696 50.702 32.2602C50.3296 31.5343 50.3455 29.911 50.7344 28.9651C50.9019 28.5578 50.8631 28.5597 50.0097 29.0002C48.8078 29.6206 47.3613 30.8002 46.8567 31.5713C46.3874 32.2886 46.3123 33.7212 46.7223 34.1345C47.0793 34.4944 48.3235 34.4942 49.1551 34.1343ZM61.5817 33.1673C63.0729 32.2575 64.3993 29.8959 63.8844 29.0674C63.4151 28.3124 62.6907 28.5013 61.3625 29.7248C60.6575 30.3742 59.5152 31.3012 58.8242 31.7847C58.1332 32.2682 57.5665 32.7313 57.565 32.8139C57.5606 33.0687 59.2605 33.6897 59.9943 33.7011C60.3765 33.7073 61.0908 33.4669 61.5817 33.1673ZM52.6268 31.5549C53.93 30.1707 54.4886 28.4852 53.74 28.1956C52.2681 27.6263 50.7505 30.1096 51.4491 31.9443C51.6487 32.4688 51.8195 32.4123 52.6268 31.5549ZM80.5729 30.4089C81.6852 29.6417 82.809 28.5227 82.809 28.1823C82.809 27.2418 80.6127 28.6167 79.9019 30.0021C79.3435 31.0905 79.4718 31.1684 80.5729 30.4089ZM75.4487 25.8803C74.0606 24.9004 75.9419 23.312 77.497 24.1509C78.4756 24.6788 77.6848 26.2438 76.4394 26.2438C76.1776 26.2438 75.7318 26.0802 75.4487 25.8803Z" fill="#EFD9C1"/>
</svg>
