<svg width="22" height="23" viewBox="0 0 22 23" fill="none" xmlns="http://www.w3.org/2000/svg">
<g clip-path="url(#clip0_253_1110)">
<path fill-rule="evenodd" clip-rule="evenodd" d="M6.25 2.22105C3.90279 2.22105 2 4.12384 2 6.47105V16.471C2 18.8183 3.90279 20.721 6.25 20.721H16.25C18.5972 20.721 20.5 18.8183 20.5 16.471V6.47105C20.5 4.12384 18.5972 2.22105 16.25 2.22105H6.25ZM0.5 6.47105C0.5 3.29541 3.07436 0.721049 6.25 0.721049H16.25C19.4256 0.721049 22 3.29541 22 6.47105V16.471C22 19.6467 19.4256 22.221 16.25 22.221H6.25C3.07436 22.221 0.5 19.6467 0.5 16.471V6.47105Z" fill="#CF7956"/>
<path fill-rule="evenodd" clip-rule="evenodd" d="M11.7158 8.55232C11.1101 8.4625 10.4914 8.56597 9.94782 8.84801C9.40425 9.13006 8.96346 9.57632 8.68814 10.1233C8.41281 10.6703 8.31698 11.2902 8.41427 11.8948C8.51156 12.4994 8.79702 13.058 9.23004 13.491C9.66306 13.924 10.2216 14.2095 10.8262 14.3068C11.4308 14.4041 12.0507 14.3082 12.5977 14.0329C13.1447 13.7576 13.591 13.3168 13.873 12.7732C14.1551 12.2297 14.2585 11.611 14.1687 11.0052C14.0771 10.3873 13.7892 9.81528 13.3475 9.37358C12.9058 8.93188 12.3337 8.64395 11.7158 8.55232ZM9.32893 7.65527C10.1234 7.24305 11.0276 7.09182 11.9129 7.22311C12.816 7.35702 13.6521 7.77784 14.2976 8.4234C14.9432 9.06896 15.364 9.90504 15.4979 10.8081C15.6292 11.6935 15.478 12.5977 15.0658 13.3921C14.6536 14.1866 14.0013 14.8308 13.2019 15.2332C12.4024 15.6356 11.4964 15.7756 10.6127 15.6335C9.72907 15.4913 8.91274 15.0741 8.27987 14.4412C7.64699 13.8083 7.22978 12.992 7.08759 12.1083C6.94539 11.2247 7.08546 10.3187 7.48785 9.51919C7.89025 8.71972 8.53448 8.06749 9.32893 7.65527Z" fill="#CF7956"/>
<path fill-rule="evenodd" clip-rule="evenodd" d="M15.5052 6.54397C15.5052 6.1729 15.806 5.87209 16.1771 5.87209H16.1861C16.5571 5.87209 16.8579 6.1729 16.8579 6.54397C16.8579 6.91503 16.5571 7.21584 16.1861 7.21584H16.1771C15.806 7.21584 15.5052 6.91503 15.5052 6.54397Z" fill="#CF7956"/>
</g>
<defs>
<clipPath id="clip0_253_1110">
<rect width="21.5" height="21.5" fill="white" transform="translate(0.5 0.721049)"/>
</clipPath>
</defs>
</svg>
