<svg width="17" height="31" viewBox="0 0 17 31" fill="none" xmlns="http://www.w3.org/2000/svg">
<path d="M3.73986 0.00121178C3.65935 0.0323401 3.66207 0.0690352 3.76909 0.38913C3.94198 0.906219 4.26642 1.25724 4.80785 1.51301C5.42797 1.80594 5.655 1.84186 7.13615 1.88155C8.46577 1.91717 8.70028 1.93917 9.26691 2.08119C9.89652 2.23899 10.6624 2.58236 11.1188 2.91146C11.2779 3.02613 11.3814 3.05541 11.3814 2.98579C11.3814 2.90387 10.8514 2.46549 10.4894 2.2481C9.83783 1.85672 9.13714 1.67072 7.53003 1.46228C6.76746 1.36337 5.69422 1.14373 5.26602 0.998999C4.78245 0.835547 4.46447 0.638532 4.10281 0.278199C3.92211 0.0981668 3.77648 -0.0129549 3.73986 0.00121178ZM3.15091 0.462167C3.08701 0.448303 3.0027 0.585347 2.92814 0.830275C2.78609 1.29673 2.79111 1.81815 2.94071 2.14423C3.07845 2.44445 3.23408 2.63278 3.5218 2.84738C3.85825 3.09833 4.27684 3.88297 4.38301 4.46158C4.43934 4.7687 4.38363 5.16743 4.20684 5.72136C4.09502 6.07169 4.08824 6.12185 4.14974 6.14563C4.23147 6.17723 4.43612 5.95841 4.68971 5.56823C5.20734 4.77179 5.1756 4.04525 4.59783 3.4631C4.47456 3.33889 4.38216 3.22877 4.39242 3.21842C4.40269 3.20806 4.50369 3.2205 4.61688 3.24606C4.73009 3.27162 5.3383 3.31219 5.96849 3.33624C7.70964 3.40267 8.3612 3.49516 9.26912 3.80451C10.1502 4.10472 10.5912 4.34858 11.0027 4.7632C11.6735 5.43914 11.8328 5.80799 12.1698 7.46665C12.6608 9.88308 13.1355 11.0825 13.9592 11.9876C14.4262 12.5008 15.1597 12.9404 15.8522 13.1223C16.0291 13.1687 16.2132 13.2031 16.2614 13.1987C16.4685 13.1797 16.3206 13.05 15.7777 12.7747C14.6869 12.2216 14.0918 11.65 13.6586 10.739C13.4236 10.2449 13.3062 9.75373 13.09 8.36048C12.6859 5.75649 12.5809 5.40554 11.9583 4.57561C11.4554 3.90524 10.6634 3.39711 9.78405 3.18078C8.95578 2.97701 8.50786 2.93302 7.04869 2.91215C6.29045 2.9013 5.53223 2.87061 5.36373 2.84385C4.23117 2.66395 3.44379 1.92402 3.26074 0.867568C3.22546 0.66391 3.18773 0.48838 3.17698 0.477497C3.16877 0.469232 3.16004 0.464147 3.15091 0.462167ZM5.2632 6.22771C5.03535 6.22814 4.36807 6.3268 4.32053 6.37541C4.21969 6.47852 4.41493 6.55396 4.78254 6.55396C5.01889 6.55396 5.13092 6.57111 5.1425 6.60908C5.15176 6.63939 5.171 6.71745 5.18506 6.78254C5.22519 6.96775 5.43641 7.09031 5.76077 7.11654C5.91543 7.12905 6.04063 7.15145 6.04063 7.16632C6.0398 7.18119 6.01033 7.2319 5.97499 7.27898C5.86786 7.4217 5.89773 7.56749 6.06705 7.72839C6.23387 7.88692 6.25274 7.89475 6.33709 7.84079C6.41986 7.78782 6.70592 7.09222 6.69037 6.98184C6.67732 6.88936 6.65556 6.88455 6.23895 6.88141C5.59157 6.87655 5.38551 6.7621 5.38551 6.40728C5.38551 6.3234 5.3609 6.24543 5.33081 6.23399C5.31928 6.22961 5.29574 6.22764 5.2632 6.22771ZM9.50565 7.15461L9.28656 7.35038C8.09058 8.41907 7.69755 8.71836 7.48191 8.72454C7.3626 8.72796 7.29867 8.67903 7.01725 8.36883C6.69605 8.01478 6.5879 7.94758 6.54035 8.07247C6.51009 8.15187 6.82391 8.6972 6.99005 8.85399C7.17487 9.02837 7.43093 9.09172 7.69099 9.02736C8.00791 8.94894 8.3058 8.71851 8.77923 8.18564C9.01422 7.92115 9.23171 7.69506 9.26246 7.68317C9.4366 7.61584 10.156 8.39379 10.156 8.64944C10.156 8.74058 9.32318 9.14265 8.42723 9.4841C7.65768 9.77736 7.47265 9.87905 7.19144 10.163C6.60851 10.7517 6.49689 11.3778 6.43556 14.4033C6.35841 18.2084 6.28554 19.4158 5.99575 21.6908C5.92236 22.267 5.87551 22.76 5.89173 22.7864C5.94251 22.8692 6.04179 22.7246 6.10936 22.4694C6.42919 21.2617 6.75173 19.4834 6.95656 17.7987C7.10472 16.5802 7.15019 16.0537 7.24606 14.4474C7.39242 11.995 7.55066 11.331 8.12378 10.7652C8.3564 10.5356 8.48673 10.4601 9.32844 10.0669C10.4286 9.55305 11.032 8.96147 11.3759 8.05964C11.593 7.49009 11.5594 7.24933 11.3147 7.62193C11.1597 7.85784 10.7723 8.27375 10.7077 8.27366C10.6811 8.27362 10.6036 8.18476 10.5355 8.07617C10.3905 7.84492 9.88368 7.3598 9.66079 7.23884L9.50565 7.15461ZM10.3419 13.2651C10.2885 13.2706 10.2596 13.4691 10.1149 14.7119C10.04 15.3547 9.95036 16.0095 9.91561 16.1672C9.84774 16.475 9.80233 16.7678 9.69319 17.6003C9.47988 19.2274 8.89843 21.5229 8.22627 23.3919C8.08377 23.7881 7.98055 24.134 7.99676 24.1605C8.07226 24.2835 8.50107 23.5474 8.88224 22.6404C9.3045 21.6356 9.76196 20.0801 9.97544 18.9232C10.1051 18.2207 10.2291 17.2739 10.3105 16.3656C10.3918 15.4579 10.4216 13.286 10.3529 13.2663C10.3491 13.2651 10.3455 13.2648 10.3419 13.2651ZM14.739 13.3055C14.7342 13.306 14.7304 13.3073 14.7279 13.3098C14.7182 13.3195 14.6799 13.5348 14.6427 13.7882C14.4805 14.8941 14.2321 15.931 13.8826 16.9609C13.4711 18.1738 13.1107 18.9326 12.1158 20.6815C11.4483 21.8549 11.0556 22.6258 10.8101 23.2448C10.6362 23.6833 10.6183 23.7659 10.6166 24.1056C10.6156 24.444 10.6302 24.5119 10.7639 24.7891C10.8887 25.0479 11 25.1809 11.4642 25.6255C12.4677 26.5868 13.3913 27.5466 13.7707 28.0228C14.3652 28.7691 14.7963 29.5513 15.0988 30.4326C15.1737 30.6509 15.2437 30.8543 15.2544 30.8846C15.2937 30.996 15.3641 30.9354 15.3641 30.7902C15.3641 30.4134 15.0429 29.4493 14.6673 28.6987C14.2343 27.8332 13.7075 27.148 12.7458 26.1993C11.9637 25.4277 11.6956 25.1028 11.5083 24.7C11.1024 23.8271 11.3179 22.9956 12.4569 21.0387C13.8629 18.6232 14.695 16.0881 14.8247 13.8255C14.8444 13.4823 14.8375 13.3493 14.7985 13.325C14.7767 13.3114 14.7534 13.3041 14.739 13.3055ZM6.12842 13.5188C6.08445 13.522 6.01853 13.5714 5.97994 13.6465C5.87393 13.8531 5.16988 14.4672 4.86032 14.6231C4.70386 14.7019 4.48915 14.8384 4.38319 14.9266C4.2762 15.0155 3.95505 15.1864 3.66104 15.3107C3.15311 15.5255 3.12899 15.5417 3.06876 15.7076C3.02868 15.818 3.00493 16.0639 3.00311 16.3876C3.00073 16.8081 3.01752 16.9452 3.10141 17.1898C3.18485 17.4331 3.39344 17.8018 3.61028 18.0893C3.63964 18.1282 3.49088 18.2991 3.08902 18.6878C2.09626 19.6483 1.34848 20.6659 0.792522 21.8129C0.463565 22.4916 0.179268 23.3067 0.0709887 23.8818C-0.0244383 24.3888 -0.0234459 25.8768 0.0726924 26.4451C0.275638 27.6444 1.02394 29.168 1.99326 30.3554C2.1764 30.5798 2.3438 30.7633 2.36526 30.7633C2.47197 30.7633 2.44406 30.6491 2.28662 30.4416C1.51563 29.4258 0.827176 27.9643 0.583092 26.8252C0.520003 26.5306 0.505745 26.2483 0.50591 25.2953C0.506192 24.1614 0.509732 24.1132 0.626166 23.6732C0.918088 22.57 1.37971 21.6398 2.09678 20.7092C2.50507 20.1793 3.4681 19.1986 4.00758 18.7633C4.31748 18.5133 4.46584 18.3651 4.46584 18.3041C4.46617 18.2547 4.32183 18.0165 4.14512 17.775C3.96841 17.5334 3.79962 17.2899 3.77011 17.2338C3.74059 17.1778 3.69485 16.8861 3.6684 16.5856L3.62027 16.0393L3.73166 15.8717C3.81469 15.7467 4.01767 15.5985 4.53072 15.2883C5.29385 14.8269 5.57349 14.5977 5.81992 14.2313C6.00245 13.9598 6.17329 13.6388 6.17329 13.5672C6.17329 13.5316 6.1548 13.5169 6.12842 13.5188Z" fill="#888D84"/>
</svg>
