<svg width="36" height="33" viewBox="0 0 36 33" fill="none" xmlns="http://www.w3.org/2000/svg">
<path d="M13.1653 16.5703H13.1814M22.8347 16.5703H22.8508M14.7769 23.0459C15.5826 23.5316 16.7107 23.8554 18 23.8554C19.2893 23.8554 20.4174 23.5316 21.2231 23.0459M29.281 7.34243C30.741 9.18098 31.7363 11.3473 32.1818 13.6562C32.7267 13.9213 33.1863 14.3353 33.5079 14.8507C33.8294 15.3661 34 15.962 34 16.5703C34 17.1785 33.8294 17.7745 33.5079 18.2898C33.1863 18.8052 32.7267 19.2192 32.1818 19.4843C31.4861 22.744 29.6986 25.6654 27.1177 27.7611C24.5369 29.8568 21.3186 31 18 31C14.6814 31 11.4631 29.8568 8.88225 27.7611C6.30136 25.6654 4.51393 22.744 3.8182 19.4843C3.27326 19.2192 2.81369 18.8052 2.49212 18.2898C2.17055 17.7745 2 17.1785 2 16.5703C2 15.962 2.17055 15.3661 2.49212 14.8507C2.81369 14.3353 3.27326 13.9213 3.8182 13.6562C4.48582 10.3706 6.26117 7.41693 8.84473 5.29347C11.4283 3.17001 14.6619 2.00677 18 2C21.2231 2 23.6405 3.78081 23.6405 6.04729C23.6405 8.31378 22.1901 10.0946 20.4174 10.0946C19.1281 10.0946 18 9.44702 18 8.47567" stroke="#CF7956" stroke-width="3.2431" stroke-linecap="round" stroke-linejoin="round"/>
</svg>
