<svg width="13" height="12" viewBox="0 0 13 12" fill="none" xmlns="http://www.w3.org/2000/svg">
<path d="M10.6956 6.98066L10.6955 6.98064L10.692 6.98428L6.5 11.2838L2.308 6.98428L2.30805 6.98423L2.30203 6.97827C1.3317 6.01623 0.5 4.97847 0.5 3.66667C0.5 2.82279 0.826968 2.01594 1.40509 1.42299C1.9828 0.830473 2.7636 0.5 3.575 0.5C4.09546 0.5 4.50988 0.575284 4.89694 0.748188C5.2877 0.922744 5.68243 1.21103 6.142 1.68238C6.23611 1.7789 6.3652 1.83333 6.5 1.83333C6.6348 1.83333 6.76389 1.7789 6.858 1.68238C7.31757 1.21103 7.7123 0.922744 8.10306 0.748188C8.49012 0.575284 8.90454 0.5 9.425 0.5C10.2364 0.5 11.0172 0.830473 11.5949 1.42299C12.173 2.01594 12.5 2.82279 12.5 3.66667C12.5 4.97132 11.6633 6.00812 10.6956 6.98066Z" stroke="#E7A687" stroke-linecap="round" stroke-linejoin="round"/>
</svg>
