<svg width="17" height="17" viewBox="0 0 17 17" fill="none" xmlns="http://www.w3.org/2000/svg">
<path d="M14.1812 3.27204C13.0696 2.15712 11.6524 1.39668 10.1088 1.08679C8.56512 0.776887 6.96426 0.931433 5.50842 1.5309C4.05257 2.13037 2.80704 3.14786 1.92918 4.45485C1.05132 5.76183 0.580509 7.29967 0.576219 8.8741C0.558854 10.2684 0.928206 11.6403 1.64328 12.8375L0.5 16.9533L4.73013 15.8481C5.89731 16.4883 7.20993 16.8164 8.54105 16.8008C10.1112 16.8072 11.6479 16.3471 12.9562 15.479C14.2645 14.6108 15.2854 13.3736 15.8896 11.9244C16.4938 10.4751 16.654 8.87908 16.3499 7.33867C16.0457 5.79826 15.2909 4.38288 14.1812 3.27204ZM8.54105 15.467C7.25542 15.4762 5.99579 15.105 4.92067 14.3999L2.40546 15.0859L3.09143 12.6469C2.33385 11.5335 1.92279 10.2208 1.91004 8.8741C1.9025 7.56102 2.28497 6.27525 3.009 5.17979C3.73302 4.08432 4.76598 3.22848 5.97696 2.72074C7.18793 2.21301 8.52239 2.07624 9.81118 2.32778C11.1 2.57932 12.2851 3.20784 13.2162 4.13367C14.1474 5.0595 14.7828 6.24095 15.0417 7.52827C15.3007 8.81559 15.1716 10.1508 14.6709 11.3647C14.1701 12.5786 13.3203 13.6165 12.229 14.3468C11.1377 15.0771 9.85416 15.467 8.54105 15.467Z" fill="white"/>
<path d="M12.1614 10.5509C11.7194 10.304 11.261 10.0876 10.7895 9.90306C10.6371 9.82685 10.4846 9.78874 10.3703 9.97928C10.256 10.1698 9.83677 10.6271 9.72244 10.7796C9.67086 10.8386 9.59853 10.8755 9.52047 10.8826C9.44241 10.8897 9.36461 10.8664 9.30324 10.8177C8.71925 10.5769 8.17858 10.2422 7.70265 9.82685C7.26558 9.42939 6.89277 8.96658 6.59748 8.45491C6.57637 8.42525 6.56155 8.39158 6.55394 8.35598C6.54632 8.32038 6.54608 8.28359 6.55322 8.24789C6.56036 8.21219 6.57473 8.17833 6.59545 8.14839C6.61617 8.11846 6.6428 8.09308 6.6737 8.07382L6.97857 7.69273C7.05556 7.60017 7.11965 7.49761 7.16912 7.38785C7.19922 7.33571 7.21507 7.27657 7.21507 7.21636C7.21507 7.15616 7.19922 7.09701 7.16912 7.04487C7.0929 6.93054 6.71181 5.97781 6.55937 5.55861C6.40693 5.13941 6.21639 5.21563 6.10206 5.21563H5.72097C5.61717 5.21409 5.51452 5.23753 5.42167 5.28395C5.32882 5.33038 5.24849 5.39843 5.18744 5.48239C4.96008 5.68864 4.78079 5.94231 4.66226 6.22547C4.54373 6.50863 4.48884 6.81438 4.50147 7.12109C4.56791 7.86902 4.84545 8.58268 5.30177 9.17899C5.41609 9.29332 6.71181 11.3131 8.69349 12.1515C9.06003 12.3281 9.44294 12.4685 9.83677 12.5707C10.2421 12.7058 10.6757 12.7321 11.0944 12.6469C11.4755 12.6088 12.2758 12.1896 12.4282 11.7323C12.5806 11.275 12.6187 10.8558 12.5425 10.7796C12.4396 10.6689 12.3075 10.5896 12.1614 10.5509Z" fill="white"/>
</svg>
